<?xml version="1.0" encoding="utf-8"?>
<!-- Generator: Adobe Illustrator 26.2.1, SVG Export Plug-In . SVG Version: 6.00 Build 0)  -->
<svg version="1.1" id="Layer_1" xmlns="http://www.w3.org/2000/svg" xmlns:xlink="http://www.w3.org/1999/xlink" x="0px" y="0px"
	 viewBox="0 0 1920 381.1" style="enable-background:new 0 0 1920 381.1;" xml:space="preserve">
<style type="text/css">
	.st0{fill:#0C0201;}
</style>
<g id="a">
</g>
<g id="b">
	<g id="c">
		<path class="st0" d="M1919.9,239c0,45.8-0.1,91.6,0.1,137.4c0,3.7-0.7,4.6-4.6,4.6c-296.1-0.1-592.1-0.1-888.2-0.1
			c-340.9,0-681.8,0-1022.7,0.1c-3.8,0-4.6-1-4.6-4.6C0.1,323.3,0.1,270.2,0.1,217c10.2,0.7,20.3-1,30.4-1.1c3.8,0,9.7,2.1,10.9-1.8
			c1.1-3.5-4.2-6.6-7.3-9.2c-5-4.2-10.2-8.2-16.2-11c11.8,0.6,20.1,7.5,28.3,14.7c-7.5-13.1-18.6-21.8-34.1-25.3
			c2-1.4,3.2-1.3,4.3-1.1c9.2,1.9,18.2,4.4,25.3,11c1.2,1.1,2.4,2.3,3.9,3.1c1.6,0.9,3.6,1.2,5.2-0.2c1.6-1.4,0.8-3.1,0.1-4.6
			c-1.3-2.9-2.8-5.7-4.1-8.6c-3.2-7.2-8.9-12.5-13.2-19c6.4,3.5,10.8,8.9,15,14.7c4.1,5.8,5.2,13.1,9.6,19.5
			c0.8-3.2-1.1-6.1,1.2-8.9c0.7,3.7,1.2,6.8,1.9,9.9c0.2,1,0.8,2,2,1.9c1.2-0.1,1.5-1.2,1.6-2.2c0.1-1.8,0.1-3.7,0.2-5.5
			c0-1-0.1-2.2,0.9-2.7c1.4-0.7,2.1,0.8,2.7,1.6c1.4,1.8,3.2,3.6,3.9,5.7c1.9,5.3,5,10,7.8,14.9c1.7-1.2-0.3-4,1.8-5.1
			c1.7,1.8-0.5,5.8,2.5,5.8c2.3,0-0.4-3.6,1.4-5c2.4,0.9,1,4.5,4.2,5.4c-0.1-7.6-2.2-14.9-0.8-22.7c1.9,6.9,0.7,13.8,3.9,20
			c-0.3-6-0.3-12,1.7-17.7c4.8-13.3,4.9-13.2,8.4-15.1c-1,2.5-1.8,4.7-2.6,6.8c-3.2,8.5-4.6,17.4-3.9,26.5c0.1,1.2-0.2,3,1.7,3.1
			c1.4,0,1.6-1.5,1.9-2.6c1.2-4.5,2.1-9.1,5.2-12.8c0.4-0.4,0.6-1.4,0.4-1.8c-2.1-3.6,0.6-3.2,2.7-3.6c5.6-1.2,10.3-6.5,10.6-12
			c3.1,1.9,5.6,3.8,6.4,7.7c0.6,2.6,2,7.5,3.6,7.1c4.2-0.9,6.3,2.5,9.7,3c9.8,1.3,18.3,5.8,25.2,13c2,2,4.3,2,6.4,0.8
			c2.1-1.2,0.9-3.3,0.2-5c-2.8-6.8-6.1-13.3-11-18.9c-2.6-2.9-5-6-7.5-9c0.4-0.3,0.8-0.6,1.1-0.9c12.3,8,18,21,23.8,34
			c1.8-1.4,0.7-3.5,2-4.8c1.5,2.2,1,4.5,1.6,6.6c0.4,1.3,0.6,3,2.2,3c1.8-0.1,1.3-2,1.5-3.2c0.4-2.8-0.6-5.8,1-9.1
			c6.4,5.9,9.1,13.1,11,20.8c1.8-0.9,0.4-2.8,1.6-3.6c0.3,4.8,4.8,5,7.6,5.8c5,1.4,3.1-4,4.6-6.7c2.1,2,0.4,5.5,3.5,7.3
			c-1.2-14.7,1.2-27.8,10.8-38.8l0,0c-0.2,2.4-1.1,4.5-2.1,6.6c-4.3,9.4-6.4,19.2-5.8,29.6c0.1,1.4-0.3,3.4,1.6,3.7
			c2,0.3,2.1-1.8,2.4-3.1c0.9-3.4,1.8-6.9,3.9-9.7c2.1-2.8,2.8-4.9-0.7-7.4c4.9,1.1,8.1-1.2,11.4-3.5c3.9-2.7,6.5-8.2,13-5.9
			c-0.9,1.4-3.2,2.8-2.2,4.9c2.9,5.5,3.7,11.7,6.1,18.1c1.5-5.5-1.6-9.8-0.5-14.5c2.6,7.3,2.9,15,3.4,22.6c2.1-5.1,1.4-10.4,2-15.6
			c0.6,4.3,1.4,8.7,1,12.9c-0.5,5.5,2.4,6.2,6.6,6.3c16.2,0.3,32.2-1.5,48.1-4.5c9.8-1.9,19.5-4.3,29.2-6.5c1.4-0.3,3.2-0.5,3.6-2.2
			c0.4-1.8-1.3-2.6-2.3-3.5c-3.3-2.9-7.1-4.9-10.9-7.1c-1.5-0.9-3.7-1.1-4.6-3.8c10.6,2.1,19,7,27,13.2
			c-6.7-12.2-17.7-18.5-31.1-22.1c2.3-1.9,4.2-1.4,5.9-1c9.3,2.2,18.5,4.6,25.2,12.2c1.9,2.1,4.6,3.4,7.1,1.7c2.8-1.8,1.1-4.7,0-6.7
			c-4.2-7.7-8.1-15.7-14.8-21.8c-1.5-1.3-2.9-2.8-3.4-4.8l0,0c1.5,0.2,2.9,0.7,4.1,1.7c9.1,7.9,16.3,17,20,28.7
			c0.4,1.4,0.3,3.2,2.6,4.2c0.4-6-2.4-11.2-2.1-16.6c8.5,4.2,12.8,11.7,17.4,19c0.5,0.7,0.7,2.2,2,1.5c0.9-0.4-0.5-2,0.8-2.3
			c1.9-0.6,0.6,8.2,4.5,1.3c0,0,0.5,0.2,0.7,0.4c5.1,5.4,6.2,0,7.8-3.2c1.6,1.2,0.4,3.4,2.9,4.2c3.2-8.6,3.6-18.6,10.9-26
			c0.8,2.8-0.5,4.5-1.4,6.2c-2.6,4.9-3.7,10.3-5.1,15.6c-0.5,1.9-0.5,4.2,1.7,5.3c2.4,1.2,4-0.3,5.7-1.8c3.3-2.9,0.4-4.9-1.4-7.6
			c6.8,3.5,9.9-1.9,14.1-4.6c2.4-1.6,2.3-3.3,0.9-5.5c-1.5-2.3-3.7-4.1-4.5-7.7c2.9,1.2,4.7,2.7,5.9,4.6c3.3,5.4,7.5,10.3,9,16.6
			c1.1,4.8,4,7,8.8,7c22.5-0.2,44.9,2.2,67.2,4.7c1.1,0.1,2.6,0.6,3-0.9c0.4-1.4-1-2-2-2.5c-2.4-1.5-4.8-2.9-7.3-4.3
			c-1.6-0.9-3.5-1.4-4.8-3.7c11,1.3,18.9,7.3,27.1,12.9c-7.1-13.3-19.5-19-33-23.1c4.4-0.8,8.6,0,12.7,1.1
			c7.7,2.1,14.5,5.9,20.4,11.2c2.1,1.8,5.1,3.2,7.3,1.9c2.6-1.5,0.3-4.3-0.5-6.2c-4-9.5-10-17.6-17.2-24.9c-1-1-2.7-1.9-2.2-4.3
			c1.1,0.5,1.9,0.6,2.5,1.1c7.8,6.6,15,13.8,19,23.4c2.9,7,4.5,14.8,13,17.6c0.4,0.1,0.8,0.7,1,1.1c2.7,5.7,7.2,8,13.5,7.9
			c4.8,0,5.7-0.6,4.9-5.3c-0.5-2.6-1.7-5.1-1.2-9.2c2.8,5.5,2.3,10.8,6.3,15c0.4-7.3-2.6-13.8,0-20.3c1,6.1,0.6,12.3,3,18.2
			c0.9-6.3,0.7-12.6,2.4-18.7c1.9-7.1,5.9-14.2,9.7-16.1c-1.7,4-3.5,7.8-4.8,11.7c-2.7,7.6-3.7,15.5-3.3,23.6c0.1,1.3,0.1,3,1.8,3.2
			c1.8,0.2,1.9-1.5,2.3-2.7c0.9-2.9,1.1-6.1,2.7-8.5c2-3,3.5-5.6,0.1-9.3c3.3,0.3,5.6,0.9,7.8-0.2c0.7-0.4,2.2-0.5,2.2,0.2
			c0,4.7,4.6,5.7,6.9,8.6c3.2,3.9,5.3,8.4,8,12.9c1.9-2.8,0-5.8,2.6-8.8c0,5.5,4.2,7.6,6.3,11.1c2,3.4,3.2,2.4,4.3,0
			c1.8-4.1,5.1-6.9,8-10.1c1.4-1.5,4-2.8,2.6-5.3s-3.5-4.5-6.8-4.1c-1.3,0.2-3,1.8-3.3-1.1c-0.3-2.4,0.4-4.1,2.9-5
			c2.7-1,2.7,0.5,3,2.3c0.2,1.4,1.5,2.1,2.6,2.9c3.7,2.8,7.5,5.4,12.6,3.9c0,2.5-3.4,3.5-1.7,5.4c3.9,4.4,4.8,9.7,5.9,15.1
			c0.2,0.8,0.5,1.8,1.5,1.8c1,0.1,1.4-0.8,1.6-1.6c0.3-1.6,0.8-3.3,0.8-4.9c0.1-10.3-2.1-20.1-6.8-29.4c-0.9-1.7-2.7-3.2-1.9-6.6
			c9.7,11.3,11.4,24.1,12.2,38.2c2.3-4.3,1-8.6,3.2-12.6c1.6,6-0.9,11.3-0.7,17.6c3.6-4.3,2.6-9.6,5.8-13.3
			c0.8,4.3-1.1,7.8-1.9,11.5c-0.3,1.5-0.4,3.2,1.6,3.6c2.1,0.3,2.5-1.4,2.5-2.9c0.1-2.6,0-5.2,0-7.8c1.6,2.2,1.2,4.9,2.9,7.5
			c0.5-4.3-0.3-8.2,1.4-11.8c2.1,2.3,2.3,2.4,3.6-1.1c3.4-8.9,8.3-16.4,17.7-20.6c-0.4,5.4-2.4,10.6-1.3,16.3
			c4.7-14,12-25.7,24.4-34.5c0.5,2.8-1.2,3.7-2.3,4.8c-6.8,6.8-12,14.6-15.4,23.7c-0.5,1.5-2,3.2-0.3,4.6c1.5,1.3,3.6,1,5.2,0.1
			c2.2-1.2,4-2.9,6-4.4c8.4-6.5,18.2-8.7,28.4-9.8c-1.6,1.2-3.3,2-5.2,2.5c-3.3,0.8-6.2,2.3-9.2,3.8c-0.9,0.4-2,0.9-1.9,2.1
			s1.2,1.4,2.2,1.7c2.6,0.8,5.2,0.9,7.9,0.5c1.1-0.2,2.5-1,3.1,0.5c2.4,6.1,9,7.4,13,11.8c1.5,1.6,4.2,1.7,6.1,0.3
			c2-1.4,0.4-3.3-0.2-4.9c-3.7-10-9.6-18.6-17.3-26c-1.2-1.1-2.9-2.1-2.7-5.1c13.8,9.4,21.7,22.2,27,37.1c1.8-5.2-0.9-9.9,0.1-14.7
			c2.9,5.7,2.5,12.3,5.2,18.1c1.8-4.1,2.3-8.2,0.2-12.3c-0.5-1-1.8-1.9,0.1-2.7c1.6-0.6,1.8,0.6,2.4,1.7c3.6,6.3,8.8,11.7,11.2,18.9
			c0.1-1.5,0.2-3,0.2-4.8c2.5,2.2-0.2,6.3,5.3,7c5.8,0.7,7.2,1.1,6.9-4.9c-0.2-4-1.7-8-0.2-12.9c2.4,5.9-0.3,11.9,3.5,17.5
			c1-6.2,1.3-11.7,2.7-16.9c2.2-8.1,5-12.5,8.5-14.3c-1,2.3-1.7,4.2-2.4,6c-2.9,7.2-4.3,14.7-5,22.3c-0.1,1.5-0.2,3.1,1.4,4
			c1,0.6,1.9,0.1,2.7-0.6c3-2.5,4.7-11.8,2.3-15.8c4.9,1.9,8.2,0.1,12-2.3c4.7-2.9,5.7-5.8,1.6-11c4.7,1.7,6.2,7.1,11.5,4.9
			c-3.3,2.5-3.3,4.9-0.7,7.2c1.2,1,0.7,2.5,1.1,3.8c3.1,11.9,5.3,14.6,14.6,14.5c22.8-0.1,45.6,1.8,68.4,2.2
			c14.8,0.3,29.6,1.1,44.4,2.2c20.9,1.7,41.8,3.2,62.6,6.1c1.5,0.2,3.2,0.7,4-1.1c0.7-1.7-0.8-2.7-1.8-3.8c-5.4-6-12-10.5-18.9-14.7
			c-1.6-0.9-4-0.7-5.1-3.5c10.6,0.8,18.1,7.4,26.8,11.4c-6.2-11.3-17.2-16.1-28.2-21c5.2-0.4,10,0.9,14.7,2.5c6,2.1,10.7,6,15.4,10
			c1.9,1.6,4.7,2.7,6.9,0.8c2-1.8,0.2-4.1-0.7-5.9c-4-8.5-8.9-16.4-15.4-23.2c-0.7-0.7-2-1.4-0.8-3.2c12.6,7.8,18.5,20.4,23.9,33.4
			c1.2-2.2,0.4-3.9,0.1-5.7c-0.5-2.6-1.1-5.2-1.4-7.8c-0.2-1.4,0.6-3.2,2.2-1.5c2.7,2.9,6.4,4.5,8.7,8.1c3.6,5.9,8.3,11.3,8.6,19
			c2.2-1.5-0.3-3.6,1.8-4.7c2.2,3,1,6.7,1.9,10.4c1.3-2.9-0.1-5.7,2.1-9.1c0.4,3.2,0.7,5.4,1.1,7.6c0.3,1.3-0.6,3.8,1.4,3.6
			c2.6-0.3,1.6-2.8,1.1-4.5c-0.5-1.9-1.4-3.8-0.1-6.8c1.6,4.1,2,7.7,5.9,11.1c-2.3-9.4-3.9-17.6-1.9-25.8c0.9,3.2,1.1,6.5,1.6,9.8
			s-0.1,6.8,1.7,11c3.4-24.8,5.6-31.6,10.6-34.4c0.1,0.3,0.5,0.6,0.4,0.9c-0.4,1.2-0.9,2.5-1.5,3.7c-4.6,9.4-5.7,19.4-5.8,29.6
			c0,1.4-0.2,3.4,1.9,3.4c1.6,0,1.8-1.7,2.2-3c0.8-3.2,1.3-6.6,3.1-9.4c2.2-3.5,3.6-6.6-3.7-8.7c5.8-0.8,9.5,1.7,13.3-1.8
			c6.2-5.8,6.5-5.5,3.2-13l0,0c3.9,0.8,4.9,6.8,9.9,5.8c0.2,0,0.8,0.8,0.7,1c-2.4,7,4,11.7,4.2,19.3c2-3.6,0.5-6.2,1.5-8.8
			c2.8,4.2,0.9,9.1,2.5,13.1c1.7-0.5,0.9-2.5,2.7-2.7c0.7,2.8,2.2,4.5,5.6,4c16.2-2.2,32.3-4.2,48.5-6.2c23.8-2.9,47.6-5.8,71.4-8.6
			c8.8-1,17.6-1.6,26.3-2.4c1.6-0.2,3.7,0.1,4.4-1.8c0.6-1.8-1.1-3.1-2.3-4.1c-4-3.5-8.1-6.9-13.1-9.1c-1.9-0.8-4.1-1.2-5.6-4.6
			c12.2,3.6,22.2,8.7,30.8,18.8c-0.5-3.8-1.9-5.2-3.2-6.7c-8.3-9.8-17.9-17.7-30.8-20.9c6.5-1.7,12.1,0.9,17.7,3
			c5.3,2.1,9.5,6.1,14.1,9.4c1.8,1.3,4.1,2.2,6,0.7c1.8-1.4,0.5-3.5-0.2-5.1c-3.7-9.2-8.9-17.5-16-24.5c-1.2-1.2-3.1-2.3-3.1-5.4
			c12.4,8.9,20.8,19.6,24.8,33.6c0.4,1.5,0.1,3.6,2.2,4.1c4.3,1.1,7.7,3.1,9.4,7.5c0.5,1.3,2.1,2.4,3.7,1.8c1.9-0.7,1.4-2.4,1.1-3.9
			c-0.4-2-1-4-1.5-6.1c2.6,0.1,2.3,3.2,4.7,3.1c0.6-3.5-2.7-6.4-1.4-10.3c2.1,1.6,1.6,4,2.8,5.5c0.7,0.9,1.3,3.1,2.8,1.5
			c5.3-5.8,4.4,0.4,5.1,2.7c0.7,2.2,0.2,4.9,3.6,6.4c-0.4-7.5-0.7-14.3,0.6-21.2c0.9,6.7,1.2,13.4,3,20c1-5.9,1.9-11.7,3.7-17.3
			c2.5-8,5.5-12.3,10.1-14.3c-0.9,1.9-1.6,3.3-2.4,4.8c-4.3,7.7-6.1,16.1-7.1,24.8c-0.2,1.9-0.1,3.9,2.2,4.4c2,0.5,3.3-1,3.6-2.7
			c0.6-3.6,5.6-5.7,3.4-10.3c-0.4-0.8,0.9-1.3,1.7-1.3c4-0.1,6.5-3.2,9.7-4.8c3.1-1.5,3.1-3.5,0.7-5.9c-2.7-2.7-2.6-2.8-1.9-6.6
			c2.6,4,6.4,4.9,10.4,5.8c7.6,1.6,14.4,5.3,20.3,10.3c1.8,1.5,3.6,2.9,6,3.4c3.1,0.6,4.6,0.1,3.3-3.5c-2.5-7.2-6.1-13.7-10.9-19.5
			c-2.9-3.6-6-7.1-9-10.7l1.2-0.9c11.8,8.2,19.5,19.7,24.2,34c1.2-2.3,1.1-3.7,0.7-4.9c-2.4-6.6-1.8-13.9-5.3-20.2
			c-0.5-0.8-1.1-2,0-2.6c1.2-0.6,1.8,0.4,2.2,1.4c1.5,4.4,2.1,11.5,5.9,12c6.6,0.9,4.8,7.1,8.3,9.2c1.7,1,1.9,3.6,4,4
			c2.2-1.4-0.5-4,1.7-5.5c3.4,4.2,2,10.2,5.4,14.8c1.1-2,0.5-3.4,0.4-4.9c-0.1-1.4-0.2-2.9,1.5-3.3c1.9-0.4,2.5,1.2,2.9,2.7
			c0.3,1.1,0.4,2.3,0.7,3.4c0.7,2.8,1.3,5.5,2.1,8.2c0.8,2.5,1.4,5.2,3.5,7.1c-1.8-8.6-2.7-17.1-1.7-25.7c1.6,7,1.4,14.3,3.8,21.2
			c1-6.8-1.1-13.7,1.3-20.5c3.5-10,6.2-15.4,10.4-17.7c0,0.3,0.2,0.7,0.1,1c-0.7,1.7-1.5,3.3-2.3,5c-5,10.6-7,21.8-5.7,33.5
			c0.1,1.3-0.1,3.3,1.4,3.4c2.1,0.1,1.3-2.2,1.6-3.5c0.8-4.6,2-9.2,4.3-13.2c1.4-2.5,2.6-4.5-0.3-6.9c10.2-0.8,15.9-5.8,15-12.8l0,0
			c8.6,4.6,9.1,14,12.4,21.9c1.2-1.3,0-3.3,2.2-4.4c0.6,4.8,1.2,9.3,1.8,14.5c1-2.4-0.1-4.6,1.6-6.4c2.7,10.6,1.3,8.9,12.3,8.2
			c21.4-1.3,42.8-2.6,64.3-4c27.9-1.9,55.8-3.2,83.7-4.9c10.6-0.7,21.3-0.7,31.9-1.4c11.6-0.9,23.2-2,34.9-0.6
			c12,1.4,24.2,1.6,36.4,2.3c1.5,0.1,3.7,0.8,4.5-1c0.7-1.6-0.9-3.1-1.8-4.4c-5.9-9.2-14-16-23.6-21c-1.2-0.6-3.1-0.6-3.2-3.3
			c10.5,1.5,18.3,7.8,26.4,13.5c-7.5-13-19.1-20.1-33.2-23.9c8.1-0.4,15.4,1.5,22.5,5c5.1,2.5,8.4,7.7,14,9.3
			c1.3,0.4,2.7,0.8,3.8-0.3c1.1-1.2,0.4-2.5-0.1-3.7c-3.2-7.9-7.1-15.4-12.8-21.9c-2.2-2.4-4.8-4.7-6.3-8.9
			c13.2,8.6,19.9,20.7,25.5,33.9c0.9-8.8-3.4-16.5-3.8-25c2.6,2.5,2.6,6,4.1,8.9c0.8,1.6,1.4,3.5,3.6,3.8c2.4,0.3,1.5-2.6,3-4.1
			c1.1,7.1,3.5,12.7,8.6,16.9c2.1-1.5-0.7-4.2,1.9-5.5c2.4,3,2,7.2,4.4,10.2c1.2-1.1,1-2.1,0.9-3.1c-0.1-2-0.6-4.7,2.1-4.8
			c3-0.1,1.6,3,2,4.6c1.2,4.9,1.1,10.2,5,14.3c-0.9-8.5-1.6-17,0-25.5c1.4,6.1,0.3,12.5,2.9,19.8c-0.1-13,5.3-22.5,11.9-31.5
			c-3.2,7.6-5.3,15.6-7.3,23.6c-2,8.4-0.5,20.5,3.1,25c-1.8-8.2,1.1-14.9,3.9-21.4c1.4-3.2,2.5-5.7-0.4-8.6c2.7-0.1,4.9,0,7-0.4
			c1.8-0.4,3.7-1.4,3.8-3.5c0.1-2.1-2-2.4-3.5-3c-1.6-0.6-3.3-1.1-4.9-1.7c3.7-0.9,7-0.4,10.4,0.5c1,0.3,2.2,1,3.1-0.4
			c1.6-2.4,2.5-2.6,3.7-0.2c1.7,3.1,3.7,5.4,7.5,5.5c1.1,0,1.6,1.1,2,2c1.1,2.4,3.6,3.4,5.5,4.9c1.5,1.2,3.4,1.7,5,0.2
			c1.5-1.3,0.9-3.1,0.3-4.7c-2.2-5.8-5.3-11.1-9.1-16c-3.1-3.9-6.7-7.5-8.6-12.2c12.6,8.4,19.8,20.8,25.1,34.7
			c1.1-7.4-2.3-14.1-2.5-21.4c2.3,3,2.9,7.3,7,8.6c2.2,0.6,3.1,2.3,4.2,4c3.7,5.6,7,11.4,9.6,17.6c1.7-0.9,0.2-2.6,1.8-3.3
			c2.8,3.2,0.1,7.5,1.8,12.3c0.9-3.9,1.5-6.4,2-9c0.9,6,0.7,11.8-0.8,17.5c-0.4,1.7-0.3,3.5,1.6,4.2c2.4,0.9,5,1.3,7.2-0.2
			c1.8-1.2,0.4-3-0.1-4.5c-0.5-1.4-1.8-3.4-0.5-4.1c3.2-1.9,1.6-4.2,1.3-6.5c-0.6-4.3-1.5-8.5-1.9-12.8c-0.3-2.7-0.5-5.5,0.9-8.1
			c0.8,3.5,0.8,7,1.2,10.4c0.4,3.4,1.1,6.8,1.6,10.2c0.1-14.7,3.7-27.9,13.2-39.2c-3.3,7.9-7.2,15.6-8.4,24.2
			c-1.2,8.7-1.3,17.5,1.8,27c0.6-4.4,1.3-7.7,1.3-10.9c0-6.7,6.5-11.6,4.8-18.7c0-0.2,1-0.9,1.6-0.9c3.4,0.2,5.9-2,8.8-3.2v19
			c-4.9,1.3-5.6,5.8-7.1,9.5C1909.3,237.4,1910.4,238.8,1919.9,239L1919.9,239z M434.1,213c-0.5,2.6-1.7,5.4,2.2,6.4
			c1.4,0.3,2.9,0.3,3-1.5C439.5,214.2,437.4,212.9,434.1,213c1.5-1.8,3.8-3.8,1.1-6.2c-2.7-2.5-4.3,0.5-6.2,1.9
			c-0.5,0.4-0.9,0.9-1.3,1.4c-0.8,1-1.2,2-0.4,3.1c0.8,1,1.8,1.4,3,1.1C431.6,214,432.8,213.5,434.1,213L434.1,213z M244.1,213.1
			c0.4-2.1,1.1-4.5-1.2-5.8c-2.2-1.2-3.6,0.9-5.2,2c-0.5,0.4-1,0.9-1.4,1.4c-0.8,0.9-1.6,1.8-0.9,3.1c0.7,1.2,1.9,1.3,3.1,1.1
			C240.3,214.3,242.2,213.6,244.1,213.1c-0.9,1.6-3.4,3.2-2.3,5.1c3,5,5.2,10.4,8.3,15.4c0.8-5.1-0.2-9.7-1.7-14.3
			C247.6,216.8,247.1,214,244.1,213.1L244.1,213.1z M725.2,250.9c7.2,0.8,14.2-0.9,21.4-0.9c1.3,0,2.9,0.1,3.4-1.4s-0.7-2.4-1.7-3.3
			c-5.2-5-10.9-9.2-17.3-12.4c-2.5-1.3-5.3-2.3-7.9,0c-4.4,3.8-8.2,8.2-11.1,13.3c-2,3.3-0.4,4.7,2.8,4.8
			C718.2,251,721.7,250.9,725.2,250.9L725.2,250.9z M1828.2,235c2.2-0.4,5.7,1.3,7.2-1.2c1.7-2.9-1.5-5.4-2.9-7.9
			c-0.5-1-1.3-2-1.9-2.9c-4.5-6-6.2-5.8-9.3,1C1817.1,232.9,1818.4,235,1828.2,235L1828.2,235z M163.2,220.7
			c-3.3-7.2-9.8-10.9-16-14.8c-2.9-1.8-6.1-3.3-9.6-4c-1.2-0.2-2.4-0.1-2.9,1.2c-0.4,1.2-0.1,3.1,0.6,3.2c3.8,0.2,4.6,4.5,8.2,5.2
			c6.1,1.2,11.4,4.5,16.1,8.5C160.6,220.7,161.5,221.6,163.2,220.7L163.2,220.7z M129.7,217.4c1.6-2.6,1.1-4.1,1-5.5
			c-0.4-7.4-5.1-13.2-6.9-20.1c-0.3-1.1-1.3-2.3-2.6-1.7c-2.8,1.2-6.1,2.7-6.1,5.9c0,4,3.7,1.7,5.2,2
			C122.2,205.2,127,210.4,129.7,217.4L129.7,217.4z M1401.9,236.2c-5.7-11.2-12.6-19.4-23.3-24.1c-1.3-0.6-2.7-2-3.9-0.3
			c-1,1.4,0,2.9,0.9,4.1c1.5,1.9,3.5,3,5.7,3.8c6.2,2.4,10.9,6.7,15.2,11.7C1397.8,232.8,1398.5,234.8,1401.9,236.2L1401.9,236.2z
			 M758.4,247.7c-5-9.5-12-16.6-21-21.9c-1.3-0.8-2.9-0.6-4.3,0.1c-1.2,0.6-2.7,1.1-2.8,2.5c-0.1,1.8,1.7,1.8,2.8,2.2
			c8.5,3,15.7,7.7,21.3,14.8C755.3,246.5,755.9,248.1,758.4,247.7L758.4,247.7z M708.2,242.7c4.5-8,11.3-13.3,19-17.7
			c0.9-0.5,2.6-0.7,2.1-2.2c-0.4-1.2-1.9-1.2-3-1.4c-1.5-0.2-3.2-0.3-4.3,0.8C716.2,228,710.7,234.3,708.2,242.7L708.2,242.7z
			 M682.3,246.4c1.4-5.2,5.2-9,7.5-13.7c0.7-1.4,0.9-3.2,1-4.8c0.1-1.1,0.1-2.5-1.3-2.8c-1.2-0.2-1.6,1-2.1,1.8
			C683.6,232.8,682.1,239.4,682.3,246.4L682.3,246.4z M1369.8,226.1c1.9,2.8,4,6.1,6.3,9.4c0.4,0.5,1.1,0.8,1.8,0.3
			c0.8-0.5,0.9-1.4,0.7-2.2c-0.9-3.3-1.8-6.7-2.9-10c-0.4-1.4-1.5-2.3-3-1.8C1370.9,222.4,1369.8,223.5,1369.8,226.1L1369.8,226.1z
			 M74.8,214c-1.1-6.2-1.7-12.6-6.9-18.1C65.5,204.4,70,209.2,74.8,214z M1795.4,214.6l-1.4,0.1c1.4,5.3-0.1,10.4-0.2,15.6
			c-0.1,2.6,1.9,2.8,3.8,2.6c1.7-0.1,3-0.9,2.4-2.8C1798.6,224.9,1797,219.7,1795.4,214.6L1795.4,214.6z M1386.8,235
			c-0.4,3,1.2,4.3,3.6,4.7c1.8,0.3,4.3,1.9,5.5-0.1c1.3-2.1-1.5-3.2-2.5-4.8c-0.4-0.6-0.8-1-1.2-1.5c-1.1-1.2-2.1-3.2-3.8-2.8
			C1386.1,231.1,1387.2,233.6,1386.8,235L1386.8,235z M187.7,212.1c-1.2,5.8-1.2,10.5,3.1,14.3c0.8,0.7,1.6,1.3,2.7,0.7
			c0.7-0.4,0.6-1.2,0.3-1.8C192.3,221.1,192.2,216.1,187.7,212.1z M151.8,219c-3.8-2.3-6.4-3.9-9.1-5.4c-1.4-0.8-3.3-1.7-4.2,0.6
			c-0.8,1.9-0.1,3.8,2,4.4C143.7,219.6,147,220.6,151.8,219L151.8,219z M371.6,202.8c0.6,4.1,1.1,7.3,1.6,10.6
			c0.1,0.5,0.2,1,0.3,1.5c0.3,1,0.8,2,2,1.9c0.5,0,1-0.7,1.3-1.2C378.6,211.4,376.4,205.4,371.6,202.8L371.6,202.8z M1383.5,235.2
			l1.2,0.1c0.2-2.1,0.5-4.2,0.5-6.2c-0.1-3-2.6-4.8-4.9-4.4c-2.2,0.3-0.9,3-0.6,4.7c0.3,1.6,0.8,3.2,1.3,4.8
			c0.1,0.2,0.4,0.3,0.5,0.3c0.9-0.8-0.2-2.3,1.1-3C1382.9,232.7,1383.2,234,1383.5,235.2L1383.5,235.2z M236.3,234.2
			c1.2-0.1,3.3,0.6,2.9-1.5c-0.4-2.3-2.3-4.2-4.6-4.7c-2.1-0.4-2.9,1.5-2.9,3.2C231.6,234.4,234.4,233.8,236.3,234.2L236.3,234.2z
			 M115.6,217c1.3-0.3,3.5,0.3,3.1-1.9c-0.4-2.1-2.2-3.8-4.4-4c-2-0.2-2.8,1.7-2.7,3.4C111.7,216.9,113.8,216.8,115.6,217L115.6,217
			z M1436.9,232.6c-1.3,3.8-1.1,6.4-0.7,9c0.3,1.6,1.3,2.9,3.1,2.4c1.8-0.5,1.2-2.1,0.8-3.3C1439.3,238.3,1438.3,236.1,1436.9,232.6
			z M641.1,234.8c0.1-1.5-0.6-2.3-1.8-1.8c-2.8,1.4-4.4,4-5.4,6.8c-0.5,1.2,0.8,1.8,1.9,1.2C638.4,239.6,639.7,237.1,641.1,234.8
			L641.1,234.8z M643.4,238.1c-1.7,0.5-3,1.6-3.3,3.3c-0.3,2.1,1.4,2.3,2.9,2.4c1.5,0.1,3.3,0,3.1-2.1
			C646,240.2,645.4,238.6,643.4,238.1L643.4,238.1z M173.9,219c-0.4-1.6-1.4-2.6-3.1-2.6c-1.1,0-2,0.5-1.8,1.7
			c0.3,1.7,1.4,2.5,3,2.7C173.3,220.8,174,220.2,173.9,219L173.9,219z M1045.5,244.5c-0.4-1.5-1.3-2.6-2.9-2.9c-1.1-0.2-2,0.3-2,1.6
			c0.1,1.6,1.3,2.2,2.6,2.5C1044.2,245.9,1045.3,245.9,1045.5,244.5L1045.5,244.5z M1791.7,215.1c-0.1-0.1-0.1-0.3-0.2-0.4
			c-0.1,0.1-0.3,0.1-0.3,0.2s0.1,0.3,0.2,0.4L1791.7,215.1L1791.7,215.1z M1428.4,224.7c-0.1,0.1-0.2,0.3-0.2,0.4
			c0,0.1,0.2,0.2,0.3,0.2c0.1-0.1,0.2-0.3,0.2-0.4C1428.7,224.8,1428.5,224.8,1428.4,224.7z"/>
	</g>
</g>
<path d="M1746.8,138.4c5,0.1,4.9,0.1,4.4,4.8c-0.9,8-1.7,16.1-2.5,24.1c-0.3,2.7-0.6,5.4-0.9,8c-0.3,2.3,0.1,2.7,2.3,3.1
	c1.3,0.2,2.7,0.5,4,0.7c0.4,0,1-0.5,1.1-0.9c0.3-1.1,0.3-2.2,0.5-3.2c1-5.6,2-11.3,2.9-16.9c0.1-0.7-0.2-1.5-0.2-2.3
	c0-1.6,0-3.2,0.1-4.7c0.1-1.5,0.5-3,0.7-4.6c0.3-2.2,0.2-4.5,0.9-6.6c0.5-1.5,0.8-3,0.7-4.5c0-0.3,0-0.7,0.2-1
	c2.1-2.3,1.2-5.2,1.4-7.8c0-0.3,0-0.6,0.1-0.8c0.5-2,1.1-3.9,1.5-5.9c0.4-2,0.6-4,0.9-6.1c0.1-0.4,0.2-0.7,0.4-1.1
	c0.3-0.8,0.6-1.7,0.9-2.8c1.1-0.3,1.5-1.2,0.7-2.3c-0.9-1.4-0.4-2.5,0.6-3.3c1.3-1.1,1.3-2.3,0.7-3.7c-0.6-1.3-0.7-2.5,0.1-3.8
	c0.7-1.1,1.3-2.3,1.8-3.5c0.2-0.4-0.2-1-0.3-1.5c-0.1-0.6-0.5-1.3-0.4-1.9c0.2-1.7,1-3.4,0.8-5c-0.5-3.1,1.3-5.5,1.9-8.2
	c0.5-2.2,1.2-4.1,0.5-6.4c-0.2-0.6,0.5-1.8,1.2-2.3c1.4-1.1,1.9-2.5,1.4-4.2c-0.3-1-0.1-2.1-0.1-3.2c0-0.5,0-1.1,0-1.6
	c0.1-1.1,0.2-2.3,0.4-3.4c0.1-0.6,0.2-1.1,0.2-1.7c0.1-1-0.1-2,0.3-2.8c0.4-1,0.3-1.6-0.4-2.3c-0.7-0.7-1.3-1.4-2-2.1
	c0.4-0.2,0.5-0.3,0.6-0.3c0.6,0.4,1.5,1.3,1.8,1.1c1.1-0.6,2.1-1.5,2.9-2.5c0.2-0.2-0.3-1.1-0.6-1.5c-1.2-1.7-1.2-2.6,0.5-3.9
	c1.1-0.8,1.6-1.9,1.8-3.2c0.9-5.5,2-11,2.9-16.4c0.5-3,0.9-6,1.4-9c0.4-2.4,1.3-3.3,3.7-3.1c1.7,0.1,3.4,0.5,5,0.9
	c1.5,0.4,2,1.4,1.7,3.1c-1.6,8.8-3.3,17.5-4.6,26.4c-0.4,2.7,1.2,5.8-1.5,8.1c-0.1,0.1-0.1,0.2,0,0.3c1.1,2.3,0.7,4.5-0.1,6.7
	c-0.2,0.5-0.3,1.1-0.4,1.7c-0.2,1.1-0.4,2.3-0.7,3.4c-0.5,2-1.1,3.9-0.1,6c0.1,0.3-0.7,1.2-1.3,1.6c-1.4,1.2-1.7,2.6-0.9,4.1
	c0.8,1.6,0.2,2.8-0.6,4.1c-0.4,0.7-0.4,1.8-0.5,2.7c-0.1,0.8,0,1.7-0.3,2.4c-0.6,1.3-0.6,2.6-0.6,4.1c0.1,2-0.6,4.2-1.2,6.2
	c-0.7,2.1-1.8,4.1-2.4,6.2c-0.3,1-0.2,2.2,0.2,3.2c0.6,1.5,0.4,2.7-0.9,3.7c-1,0.8-1,1.5-0.4,2.6c0.7,1.3,0.4,2.4-0.7,3.4
	c-1.6,1.4-2,2.9-1,4.7c1.2,2.5,0.5,4.8-0.4,7.1c-0.2,0.4-0.3,0.8-0.4,1.2c-0.5,2.3-1,4.6-1.5,6.9c-0.1,0.4-0.3,0.8-0.4,1.3
	c-0.2,2.4-0.4,4.7-0.6,7.1c0,0.2,0,0.4-0.1,0.5c-1.5,2.5-1.3,5.4-1.6,8.2c-0.2,1.4-0.4,2.8-0.7,4.1c-0.1,0.3-0.3,0.7-0.6,0.9
	c-1.6,1.1-2,2.3-1.2,4.1c0.6,1.2,0.4,2.3-0.5,3.3c-0.6,0.7-1.1,1.6-1.2,2.4c-1.2,6.5-2.4,13-3.6,19.5c-0.2,1-0.1,1.7,1.1,2
	c1.6,0.4,3.2,0.9,4.8,1.3c1.1,0.3,1.6-0.2,1.9-1.3c2.6-10,5.2-20,7.8-30c0.5-2,1.2-4,1.7-6c0.3-1.1,0.8-1.5,2-1.3
	c3.1,0.5,3.2,0.5,2.4,3.5c-1.8,7-3.7,14.1-5.5,21.1c-1.1,4.4-2.1,8.8-3.1,13.2c-0.3,1.4,0.3,2.1,1.6,2.5c5.2,1.5,9.1,4.5,11.9,9.2
	c3.2,5.4,5.3,11.1,7,17c0.8,2.7,0.5,5.7,0.6,8.5c0.1,1.3,0,2.7-0.1,4c-0.2,1.6,0,2.9,1.4,4.1c0.5,0.5,0.1,2.2,0,3.3
	c-0.1,0.4-0.9,0.6-1.3,0.9c-0.5,0.3-1.2,0.5-1.5,0.9c-0.9,1.3-1.6,2.8-2.3,4.2c-3.1,6.1-6.9,11.7-12.6,15.6c-4.1,2.9-8.5,5.5-13,7.6
	c-2.6,1.2-5.6,1.3-8.5,1.8c-0.6,0.1-1.2,0.3-1.8,0.4c-1.8,0.3-3,1.2-3.6,3.1c-0.2,0.7-1.5,1.5-2.4,1.7c-1.5,0.3-2.3,1-2.8,2.4
	c-0.7,2.2-2,3-4.3,2.8c-1.2-0.1-2.5-0.4-3.7-0.8c-2-0.7-2.5-1.5-2.1-3.6c0.3-1.8-1.3-3.6-3.2-3.6c-2.5,0-2.5-0.1-2.6-2.5
	c0-0.4-0.4-0.9-0.7-1.1c-0.8-0.5-1.7-1.1-2.6-1.4c-1.6-0.5-2.6-1.6-3.7-2.8c-2.6-3-5.4-5.9-8.2-8.8c-5.8-5.8-9.5-12.6-11.2-20.6
	c-0.6-2.8-1-5.7-1.3-8.6c-0.2-1.1-0.4-2-1.6-2.6c-1.4-0.7-0.7-2.2-0.7-3.4c0-1,0.6-1.5,1.6-1.4c1.3,0.1,1.7-0.9,2-2
	c0.9-3.2,1.7-6.5,2.9-9.6c2.9-7,7.5-12.7,13.9-17c0.3-0.2,0.6-0.3,0.8-0.6c3-3.3,7.1-4.2,11.1-5.1c1.3-0.3,2.7-0.2,4.1-0.1
	c2.1,0.1,2.2,0.2,2.5-2c0.6-5.9,1.1-11.7,1.7-17.6c0.6-5.8,1.2-11.5,1.8-17.3C1746.6,139.5,1746.7,139,1746.8,138.4z"/>
</svg>
