<?xml version="1.0" encoding="utf-8"?>
<!-- Generator: Adobe Illustrator 26.2.1, SVG Export Plug-In . SVG Version: 6.00 Build 0)  -->
<svg version="1.1" id="Layer_1" xmlns="http://www.w3.org/2000/svg" xmlns:xlink="http://www.w3.org/1999/xlink" x="0px" y="0px"
	 viewBox="0 0 940.5 226.7" style="enable-background:new 0 0 940.5 226.7;" xml:space="preserve">
<style type="text/css">
	.st0{fill:#FCF1BF;}
	.st1{fill:url(#SVGID_1_);}
</style>
<g>
	<g>
		<path d="M25.2,156.7L62,119.1h19l-42.7,42.7l42.9,51.7H62.2l-34-42l-2.9,2.9v39.1H11v-94.4h14.2V156.7z"/>
		<path d="M83.9,165.8c0-13.3,4.9-24.7,14.6-34.2c9.7-9.5,21.4-14.3,35-14.3c13.5,0,25,4.8,34.6,14.4c9.7,9.6,14.5,21.2,14.5,34.7
			c0,13.6-4.9,25.1-14.6,34.6c-9.7,9.5-21.5,14.2-35.3,14.2c-12.2,0-23.1-4.2-32.8-12.7C89.2,193.2,83.9,181,83.9,165.8z M98.3,166
			c0,10.4,3.5,19,10.5,25.7c7,6.7,15,10.1,24.2,10.1c9.9,0,18.3-3.4,25.1-10.3c6.8-6.9,10.2-15.4,10.2-25.3
			c0-10.1-3.4-18.5-10.1-25.3c-6.7-6.8-15-10.3-24.8-10.3c-9.8,0-18.1,3.4-24.9,10.3C101.6,147.7,98.3,156.1,98.3,166z"/>
		<path d="M232.5,173.2l29.2,40.2h-17.4l-27-38.6h-2.6v38.6h-14.2v-94.4h16.7c12.5,0,21.5,2.3,27,7c6.1,5.2,9.2,12.1,9.2,20.7
			c0,6.7-1.9,12.4-5.7,17.2C243.8,168.8,238.8,171.9,232.5,173.2z M214.8,162.4h4.5c13.5,0,20.2-5.2,20.2-15.5
			c0-9.7-6.6-14.5-19.7-14.5h-5.1V162.4z"/>
		<path d="M331.4,190.5h-40.4l-10.5,22.9h-15.3l46.7-100.3l45.1,100.3h-15.6L331.4,190.5z M325.6,177.1l-14-32.1l-14.7,32.1H325.6z"
			/>
		<path class="st0" d="M489.3,119.1l24.6,63.1l25.7-67.7l24.6,67.7l26.1-63.1h15.5l-42.2,100.4l-24.3-66.9l-25.3,67l-40.1-100.5
			H489.3z"/>
		<path class="st0" d="M608.4,165.8c0-13.3,4.9-24.7,14.6-34.2c9.7-9.5,21.4-14.3,35-14.3c13.5,0,25,4.8,34.6,14.4
			c9.7,9.6,14.5,21.2,14.5,34.7c0,13.6-4.9,25.1-14.6,34.6c-9.7,9.5-21.5,14.2-35.3,14.2c-12.2,0-23.1-4.2-32.8-12.7
			C613.8,193.2,608.4,181,608.4,165.8z M622.8,166c0,10.4,3.5,19,10.5,25.7c7,6.7,15,10.1,24.2,10.1c9.9,0,18.3-3.4,25.1-10.3
			c6.8-6.9,10.2-15.4,10.2-25.3c0-10.1-3.4-18.5-10.1-25.3c-6.7-6.8-15-10.3-24.8-10.3c-9.8,0-18.1,3.4-24.9,10.3
			C626.2,147.7,622.8,156.1,622.8,166z"/>
		<path class="st0" d="M757,173.2l29.2,40.2h-17.4l-27-38.6h-2.6v38.6h-14.2v-94.4h16.7c12.5,0,21.5,2.3,27,7
			c6.1,5.2,9.2,12.1,9.2,20.7c0,6.7-1.9,12.4-5.7,17.2C768.4,168.8,763.3,171.9,757,173.2z M739.3,162.4h4.5
			c13.5,0,20.2-5.2,20.2-15.5c0-9.7-6.6-14.5-19.7-14.5h-5.1V162.4z"/>
		<path class="st0" d="M814.7,119.1v81h27.8v13.4h-42v-94.4H814.7z"/>
		<path class="st0" d="M856,213.5v-94.4h19.8c9.5,0,17,0.9,22.5,2.8c5.9,1.8,11.3,5,16.1,9.4c9.7,8.9,14.6,20.6,14.6,35
			c0,14.5-5.1,26.3-15.2,35.2c-5.1,4.5-10.4,7.6-16,9.4c-5.2,1.8-12.6,2.6-22.2,2.6H856z M870.2,200.1h6.4c6.4,0,11.7-0.7,16-2
			c4.2-1.4,8.1-3.7,11.5-6.8c7-6.4,10.5-14.7,10.5-25c0-10.4-3.5-18.8-10.4-25.2c-6.2-5.7-15.4-8.6-27.6-8.6h-6.4V200.1z"/>
	</g>
	<g>
		<linearGradient id="SVGID_1_" gradientUnits="userSpaceOnUse" x1="372.5909" y1="114.3201" x2="381.1029" y2="109.2129">
			<stop  offset="0.5839" style="stop-color:#000000"/>
			<stop  offset="0.8454" style="stop-color:#000000"/>
		</linearGradient>
		<path class="st1" d="M408.2,120.1c-0.7,0.1-1.3-0.3-1.7-0.9l-11.9-20L386,85.2c0,0,0,0,0,0c-0.1-0.1-0.2-0.2-0.3-0.2
			c-0.1,0-0.2,0-0.2,0c0,0.1-0.1,0.2-0.1,0.2c-0.1,0.1-0.1,0.3,0,0.4c0,0,0,0,0,0l8.6,14.1l11.4,18.2c0.3,0.5,0.4,1.1,0.1,1.7
			c-0.1,0.3-0.4,0.6-0.7,0.8c-0.2,0.1-0.4,0.2-0.6,0.2c-4.2,0.8-8.3,2.1-12.1,3.9c-0.8,0.4-1.8,0.1-2.3-0.7L317.3,5.5l-5.4,3.3
			l72.4,118.4c0.5,0.8,0.3,1.8-0.4,2.3c-3.6,2.7-6.8,6-9.5,9.6c-0.1,0.2-0.3,0.3-0.5,0.5c-0.3,0.2-0.7,0.3-1,0.3
			c-0.6,0-1.1-0.4-1.4-0.9l-11.2-18.8l-8.6-14.1c0,0,0,0,0,0c-0.1-0.1-0.2-0.2-0.3-0.2c-0.1,0-0.2,0-0.2,0c0,0.1-0.1,0.2-0.1,0.2
			c-0.1,0.1-0.1,0.3,0,0.4c0,0,0,0,0,0l8.6,14.1l12.5,20c0.4,0.6,0.4,1.3,0,1.9c-4.5,7.3-6.9,15.8-6.9,24.4
			c-0.1,8.8,2.3,17.5,7,25.1c4.7,7.7,11.5,13.9,19.6,17.9c7.9,3.9,16.7,5.4,25.4,4.6c0.4,0,0.7,0,1,0.2c0.1-0.1,0.2-0.2,0.3-0.2
			c0.2-0.1,0.4-0.2,0.7-0.2c4.8-0.7,9.5-2.1,14-4.2c0.8-0.4,1.8-0.1,2.3,0.7l3.5,5.8l5.4-3.3l-3.5-5.8c-0.5-0.8-0.3-1.8,0.4-2.3
			c3.7-2.8,7-6.1,9.7-9.9c0.1-0.2,0.3-0.4,0.5-0.5c0.1-0.1,0.2-0.1,0.3-0.2c0-0.4,0.1-0.7,0.3-1c4.9-7.4,7.7-16.1,7.9-25
			c0.3-9.2-2.1-18.2-7-26c-4.7-7.7-11.5-13.9-19.5-17.8C425.7,120.9,416.9,119.3,408.2,120.1z"/>
	</g>
</g>
</svg>
